<?xml version="1.0" encoding="UTF-8" standalone="no"?>
<!-- Generator: Adobe Illustrator 18.0.0, SVG Export Plug-In . SVG Version: 6.00 Build 0)  -->

<svg
   xmlns:dc="http://purl.org/dc/elements/1.1/"
   xmlns:cc="http://creativecommons.org/ns#"
   xmlns:rdf="http://www.w3.org/1999/02/22-rdf-syntax-ns#"
   xmlns:svg="http://www.w3.org/2000/svg"
   xmlns="http://www.w3.org/2000/svg"
   xmlns:sodipodi="http://sodipodi.sourceforge.net/DTD/sodipodi-0.dtd"
   xmlns:inkscape="http://www.inkscape.org/namespaces/inkscape"
   version="1.1"
   id="Capa_1"
   x="0px"
   y="0px"
   viewBox="0 0 58 58"
   style="enable-background:new 0 0 58 58;"
   xml:space="preserve"
   sodipodi:docname="json-icon.svg"
   inkscape:version="0.92.1 r15371"><metadata
     id="metadata55"><rdf:RDF><cc:Work
         rdf:about=""><dc:format>image/svg+xml</dc:format><dc:type
           rdf:resource="http://purl.org/dc/dcmitype/StillImage" /></cc:Work></rdf:RDF></metadata><defs
     id="defs53" /><sodipodi:namedview
     pagecolor="#ffffff"
     bordercolor="#666666"
     borderopacity="1"
     objecttolerance="10"
     gridtolerance="10"
     guidetolerance="10"
     inkscape:pageopacity="0"
     inkscape:pageshadow="2"
     inkscape:window-width="1203"
     inkscape:window-height="864"
     id="namedview51"
     showgrid="false"
     inkscape:zoom="4.0689655"
     inkscape:cx="29"
     inkscape:cy="29"
     inkscape:window-x="0"
     inkscape:window-y="0"
     inkscape:window-maximized="0"
     inkscape:current-layer="Capa_1" /><g
     id="g18"
     transform="matrix(0.89077213,0,0,0.88983051,3.6591337,3.4406779)"><path
       d="M 50.949,12.187 49.588,10.826 40.084,1.321 C 40.083,1.32 40.083,1.32 40.082,1.32 L 39.312,0.549 C 38.957,0.195 38.486,0 37.985,0 H 8.963 C 7.776,0 6.5,0.916 6.5,2.926 V 39 55.537 56 c 0,0.837 0.841,1.652 1.836,1.909 0.051,0.014 0.1,0.033 0.152,0.043 C 8.644,57.983 8.803,58 8.963,58 h 40.074 c 0.16,0 0.319,-0.017 0.475,-0.048 0.052,-0.01 0.101,-0.029 0.152,-0.043 C 50.659,57.652 51.5,56.837 51.5,56 V 55.537 39 13.978 c 0,-0.767 -0.093,-1.334 -0.551,-1.791 z M 39.5,3.565 47.935,12 H 39.5 Z M 8.963,56 C 8.892,56 8.828,55.975 8.765,55.951 8.61,55.877 8.5,55.721 8.5,55.537 V 41 h 41 v 14.537 c 0,0.184 -0.11,0.34 -0.265,0.414 C 49.172,55.975 49.108,56 49.037,56 Z M 8.5,39 V 2.926 C 8.5,2.709 8.533,2 8.963,2 H 37.558 C 37.525,2.126 37.5,2.256 37.5,2.391 V 13.78 C 36.968,13.3 36.271,13 35.5,13 c -0.553,0 -1,0.448 -1,1 0,0.552 0.447,1 1,1 0.552,0 1,0.449 1,1 v 4 c 0,1.2 0.542,2.266 1.382,3 -0.84,0.734 -1.382,1.8 -1.382,3 v 4 c 0,0.551 -0.448,1 -1,1 -0.553,0 -1,0.448 -1,1 0,0.552 0.447,1 1,1 1.654,0 3,-1.346 3,-3 v -4 c 0,-1.103 0.897,-2 2,-2 0.553,0 1,-0.448 1,-1 0,-0.552 -0.447,-1 -1,-1 -1.103,0 -2,-0.897 -2,-2 v -4 c 0,-0.771 -0.301,-1.468 -0.78,-2 h 11.389 c 0.135,0 0.265,-0.025 0.391,-0.058 0,0.015 10e-4,0.021 10e-4,0.036 V 39 Z"
       id="path2"
       inkscape:connector-curvature="0" /><path
       d="m 16.354,51.43 c -0.019,0.446 -0.171,0.764 -0.458,0.95 -0.287,0.186 -0.672,0.28 -1.155,0.28 -0.191,0 -0.396,-0.022 -0.615,-0.068 -0.219,-0.046 -0.429,-0.098 -0.629,-0.157 -0.2,-0.059 -0.385,-0.123 -0.554,-0.191 -0.169,-0.068 -0.299,-0.135 -0.39,-0.198 l -0.697,1.107 c 0.183,0.137 0.405,0.26 0.67,0.369 0.265,0.109 0.54,0.207 0.827,0.294 0.287,0.087 0.565,0.15 0.834,0.191 0.269,0.041 0.504,0.062 0.704,0.062 0.401,0 0.791,-0.039 1.169,-0.116 0.378,-0.077 0.713,-0.214 1.005,-0.41 0.292,-0.196 0.524,-0.456 0.697,-0.779 0.173,-0.323 0.26,-0.723 0.26,-1.196 V 43.72 h -1.668 z"
       id="path4"
       inkscape:connector-curvature="0" /><path
       d="m 25.083,49.064 c -0.314,-0.228 -0.654,-0.422 -1.019,-0.581 -0.365,-0.159 -0.702,-0.323 -1.012,-0.492 -0.31,-0.169 -0.569,-0.364 -0.779,-0.588 -0.21,-0.224 -0.314,-0.518 -0.314,-0.882 0,-0.146 0.036,-0.299 0.109,-0.458 0.073,-0.159 0.173,-0.303 0.301,-0.431 0.128,-0.128 0.273,-0.234 0.438,-0.321 0.165,-0.087 0.337,-0.139 0.52,-0.157 0.328,-0.027 0.597,-0.032 0.807,-0.014 0.21,0.018 0.378,0.05 0.506,0.096 0.128,0.046 0.226,0.091 0.294,0.137 0.068,0.046 0.13,0.082 0.185,0.109 0.009,-0.009 0.036,-0.055 0.082,-0.137 0.046,-0.082 0.101,-0.185 0.164,-0.308 0.063,-0.123 0.132,-0.255 0.205,-0.396 0.073,-0.141 0.137,-0.271 0.191,-0.39 -0.265,-0.173 -0.61,-0.299 -1.039,-0.376 -0.429,-0.077 -0.853,-0.116 -1.271,-0.116 -0.41,0 -0.8,0.063 -1.169,0.191 -0.369,0.128 -0.692,0.313 -0.971,0.554 -0.279,0.241 -0.499,0.535 -0.663,0.882 -0.164,0.347 -0.248,0.744 -0.248,1.19 0,0.492 0.104,0.902 0.314,1.23 0.21,0.328 0.474,0.613 0.793,0.854 0.319,0.241 0.661,0.451 1.025,0.629 0.364,0.178 0.704,0.355 1.019,0.533 0.315,0.178 0.576,0.376 0.786,0.595 0.21,0.219 0.314,0.483 0.314,0.793 0,0.511 -0.148,0.896 -0.444,1.155 -0.296,0.259 -0.723,0.39 -1.278,0.39 -0.183,0 -0.378,-0.019 -0.588,-0.055 -0.21,-0.036 -0.419,-0.084 -0.629,-0.144 -0.21,-0.06 -0.412,-0.123 -0.608,-0.191 -0.196,-0.068 -0.357,-0.139 -0.485,-0.212 l -0.287,1.176 c 0.155,0.137 0.34,0.253 0.554,0.349 0.214,0.096 0.439,0.171 0.677,0.226 0.237,0.055 0.472,0.094 0.704,0.116 0.232,0.022 0.458,0.034 0.677,0.034 0.511,0 0.966,-0.077 1.367,-0.232 0.401,-0.155 0.738,-0.362 1.012,-0.622 0.274,-0.26 0.485,-0.561 0.636,-0.902 0.151,-0.341 0.226,-0.695 0.226,-1.06 0,-0.538 -0.104,-0.978 -0.314,-1.319 -0.21,-0.341 -0.474,-0.627 -0.788,-0.855 z"
       id="path6"
       inkscape:connector-curvature="0" /><path
       d="m 34.872,45.072 c -0.378,-0.429 -0.82,-0.754 -1.326,-0.978 -0.506,-0.224 -1.06,-0.335 -1.661,-0.335 -0.601,0 -1.155,0.111 -1.661,0.335 -0.506,0.224 -0.948,0.549 -1.326,0.978 -0.378,0.429 -0.675,0.964 -0.889,1.606 -0.214,0.642 -0.321,1.388 -0.321,2.235 0,0.847 0.107,1.595 0.321,2.242 0.214,0.647 0.511,1.185 0.889,1.613 0.378,0.428 0.82,0.752 1.326,0.971 0.506,0.219 1.06,0.328 1.661,0.328 0.601,0 1.155,-0.109 1.661,-0.328 0.506,-0.219 0.948,-0.542 1.326,-0.971 0.378,-0.429 0.675,-0.966 0.889,-1.613 0.214,-0.647 0.321,-1.395 0.321,-2.242 0,-0.847 -0.107,-1.593 -0.321,-2.235 -0.214,-0.642 -0.511,-1.177 -0.889,-1.606 z m -0.677,5.626 c -0.137,0.487 -0.326,0.882 -0.567,1.183 -0.241,0.301 -0.515,0.518 -0.82,0.649 -0.305,0.131 -0.627,0.198 -0.964,0.198 -0.328,0 -0.641,-0.07 -0.937,-0.212 -0.296,-0.142 -0.561,-0.364 -0.793,-0.67 -0.232,-0.306 -0.415,-0.699 -0.547,-1.183 -0.132,-0.484 -0.203,-1.066 -0.212,-1.75 0.009,-0.702 0.082,-1.294 0.219,-1.777 0.137,-0.483 0.326,-0.877 0.567,-1.183 0.241,-0.306 0.515,-0.521 0.82,-0.649 0.305,-0.128 0.627,-0.191 0.964,-0.191 0.328,0 0.641,0.068 0.937,0.205 0.296,0.137 0.561,0.36 0.793,0.67 0.232,0.31 0.415,0.704 0.547,1.183 0.132,0.479 0.203,1.06 0.212,1.743 -0.009,0.702 -0.082,1.297 -0.219,1.784 z"
       id="path8"
       inkscape:connector-curvature="0" /><polygon
       points="44.012,54 45.68,54 45.68,43.924 44.012,43.924 44.012,50.869 40.061,43.924 38.393,43.924 38.393,54 40.061,54 40.061,47.055 "
       id="polygon10" /><path
       d="m 20.5,20 v -4 c 0,-0.551 0.448,-1 1,-1 0.553,0 1,-0.448 1,-1 0,-0.552 -0.447,-1 -1,-1 -1.654,0 -3,1.346 -3,3 v 4 c 0,1.103 -0.897,2 -2,2 -0.553,0 -1,0.448 -1,1 0,0.552 0.447,1 1,1 1.103,0 2,0.897 2,2 v 4 c 0,1.654 1.346,3 3,3 0.553,0 1,-0.448 1,-1 0,-0.552 -0.447,-1 -1,-1 -0.552,0 -1,-0.449 -1,-1 v -4 c 0,-1.2 -0.542,-2.266 -1.382,-3 0.84,-0.734 1.382,-1.8 1.382,-3 z"
       id="path12"
       inkscape:connector-curvature="0" /><circle
       cx="28.5"
       cy="19.5"
       r="1.5"
       id="circle14" /><path
       d="m 28.5,25 c -0.553,0 -1,0.448 -1,1 v 3 c 0,0.552 0.447,1 1,1 0.553,0 1,-0.448 1,-1 v -3 c 0,-0.552 -0.447,-1 -1,-1 z"
       id="path16"
       inkscape:connector-curvature="0" /></g><g
     id="g20" /><g
     id="g22" /><g
     id="g24" /><g
     id="g26" /><g
     id="g28" /><g
     id="g30" /><g
     id="g32" /><g
     id="g34" /><g
     id="g36" /><g
     id="g38" /><g
     id="g40" /><g
     id="g42" /><g
     id="g44" /><g
     id="g46" /><g
     id="g48" /></svg>