<?xml version="1.0" encoding="UTF-8" standalone="no"?>
<svg
   xmlns:dc="http://purl.org/dc/elements/1.1/"
   xmlns:cc="http://creativecommons.org/ns#"
   xmlns:rdf="http://www.w3.org/1999/02/22-rdf-syntax-ns#"
   xmlns:svg="http://www.w3.org/2000/svg"
   xmlns="http://www.w3.org/2000/svg"
   xmlns:sodipodi="http://sodipodi.sourceforge.net/DTD/sodipodi-0.dtd"
   xmlns:inkscape="http://www.inkscape.org/namespaces/inkscape"
   viewBox="0 0 100 100"
   height="256"
   width="256"
   version="1.1"
   id="svg6"
   sodipodi:docname="mapillary-icon.svg"
   inkscape:version="0.92.1 r15371">
  <metadata
     id="metadata12">
    <rdf:RDF>
      <cc:Work
         rdf:about="">
        <dc:format>image/svg+xml</dc:format>
        <dc:type
           rdf:resource="http://purl.org/dc/dcmitype/StillImage" />
      </cc:Work>
    </rdf:RDF>
  </metadata>
  <defs
     id="defs10" />
  <sodipodi:namedview
     pagecolor="#ffffff"
     bordercolor="#666666"
     borderopacity="1"
     objecttolerance="10"
     gridtolerance="10"
     guidetolerance="10"
     inkscape:pageopacity="0"
     inkscape:pageshadow="2"
     inkscape:window-width="1545"
     inkscape:window-height="1052"
     id="namedview8"
     showgrid="false"
     inkscape:zoom="0.921875"
     inkscape:cx="128"
     inkscape:cy="128"
     inkscape:window-x="0"
     inkscape:window-y="0"
     inkscape:window-maximized="0"
     inkscape:current-layer="svg6" />
  <path
     d="M42.71,66.19A2.5,2.5 0,0,1 39.32,67.2L5.08,48.69A2.5,2.5 0,0,1 5.48,44.12L33.27,34.85A2.5,2.5 0,0,0 34.85,33.27L44.12,5.48A2.5,2.5 0,0,1 48.69,5.08L67.2,39.32A2.5,2.5 0,0,1 66.19,42.71L61.79,45.09A2.5,2.5 0,0,1 58.4,44.08L50.88,30.15A2.5,2.5 0,0,0 46.3,30.55L42.76,41.18A2.5,2.5 0,0,1 41.18,42.76L30.55,46.3A2.5,2.5 0,0,0 30.15,50.88L44.08,58.4A2.5,2.5 0,0,1 45.09,61.79zM68.33,46.67A2.5,2.5 0,0,1 71.72,47.68L96.01,92.63A2.5,2.5 0,0,1 92.63,96.01L47.68,71.72A2.5,2.5 0,0,1 46.67,68.33L49.05,63.93A2.5,2.5 0,0,1 52.43,62.92L67.89,71.27A2.5,2.5 0,0,0 71.27,67.89L62.92,52.43A2.5,2.5 0,0,1 63.93,49.05z"
     fill="#fff"
     transform="scale(.79) translate(10.5,10.5)"
     id="path4"
     style="fill:#4d4d4d" />
</svg>
